<svg version="1" xmlns="http://www.w3.org/2000/svg" width="648" height="648" viewBox="0 0 486.000000 486.000000"><path d="M377.3 144.7c-9 21.3-45.8 107.6-46.8 109.8-.8 1.6-6.8 15.8-13.5 31.5-16.7 39.3-20.9 46.6-29.3 51.1-8.8 4.7-29.2 3.4-34.4-2.3-4.7-5.2-4.6-4.4-4.8-92.3l-.2-83.1 18.1.1c25.1.2 31.6 2.4 39.1 13 3 4.2 4.2 7.5 6.2 17 .8 3.5 1.2 4 3.7 4l2.8.1-.7-13.6c-.3-7.4-.8-17.7-1-22.9-.2-5.1-.6-9.6-.9-9.8-.4-.4-288.4-.7-311.7-.4-3.3.1-3.6.3-3.4 2.8.1 2.7.3 2.7 6.5 2.9 8.5.2 14.1 1.8 16.9 4.8 4.9 5.2 5.1 8.2 4.8 92.1-.2 76.4-.2 78.1-2.2 81.5-2.1 3.4-8.7 7.6-13.5 8.4-1.4.3-4.8.5-7.6.5-4.7.1-5 .3-5 2.6v2.5l76.9-.2 76.9-.3L162 322c4.2-12.4 8-23.5 8.4-24.6.6-1.9.3-2.1-2.6-1.9-1.8.2-3.4.8-3.6 1.4-1 3-12.3 19.7-16.2 23.9-11.1 12-16.6 13.5-52 13.7-14.6 0-28.2-.3-30.2-.8s-4.7-2-6-3.4l-2.3-2.5-.2-40.5-.2-40.5 28.2.4 28.2.3 5.7 2.8c4.9 2.4 6.1 3.6 8.2 8 1.4 2.9 2.8 7.7 3.2 10.7.7 6.3 1.5 7.8 4.7 7.6l2.2-.1.1-33.5c0-18.4-.2-34.1-.4-34.8-.6-1.8-5.2-1.5-5.2.3 0 1.9.1 1.2-1.6 8.7-2 8.5-5.4 13.5-11.2 16.1-4.4 2.1-6.5 2.2-33.4 2.5l-28.6.4.1-39.3.2-39.2H88c16.8 0 33.2.3 36.5.8 11.9 1.4 18.6 7.4 22.9 20.5 1.4 4.4 2.6 8.7 2.6 9.7 0 2.7 1.4 4.3 4.2 4.8 2.3.4 2.5.1 3.6-5.6 2.4-13.3 9.8-23.3 19.3-26.4 3.9-1.3 9.4-1.8 24-1.9l18.9-.2v80.5c-.1 46.3-.5 82.7-1.1 85.6-1.7 9.4-7.3 13.5-19.3 14.3-7.1.5-8.9 1.3-7.9 3.9.4 1.1 13.5 1.3 73.9 1.3H339v-2.5c0-1.4-.3-2.5-.7-2.6-11.1-1-16.1-2.5-19.5-5.9-5-5-4.2-8.9 7.7-36.8l7.7-18.2h76.5l1.1 2.2c2.9 6 14.1 34 15.6 39 3.3 11.4-.4 17.1-12.4 19.2-1.4.3-3.5.5-4.6.5-1.6.1-2.1.7-2.1 2.6v2.5H486v-2.4c0-2.1-.7-2.6-5.2-3.6-6.4-1.5-11.4-4.3-15.1-8.4-3.1-3.5-11.9-20.8-17.2-34.1-2-5-4.2-10.4-5-12-.7-1.7-2.5-5.9-4-9.5-1.4-3.6-3.2-7.9-4-9.5-.7-1.7-4.1-9.8-7.5-18-3.4-8.3-6.8-16.4-7.5-18-.8-1.7-8.9-21-18-43-9.2-22-17.3-41-18.1-42.3-2-3.1-5.6-2.9-7.1.5zM379 202c2.8 6.9 5.8 13.8 6.5 15.5.7 1.6 3.6 8.4 6.3 15 2.8 6.6 7.1 17.1 9.8 23.3 2.6 6.2 4.5 11.4 4.2 11.7-.3.3-15.4.4-33.6.3l-33.1-.3 16-37c19.5-45.4 17.9-41.8 18.3-41.4.2.2 2.7 6 5.6 12.9z"/></svg>